<svg width="105" height="13" viewBox="0 0 105 13" fill="none" xmlns="http://www.w3.org/2000/svg">
<g clip-path="url(#clip0_22001_213)">
<mask id="mask0_22001_213" style="mask-type:luminance" maskUnits="userSpaceOnUse" x="0" y="0" width="105" height="13">
<path d="M104.52 0.380005H0.519531V12.38H104.52V0.380005Z" fill="white"/>
</mask>
<g mask="url(#mask0_22001_213)">
<path d="M5.28127 12.1948L0.519531 0.565247H2.95872L6.44425 9.24109L9.95037 0.565247H12.3895L7.60381 12.1948H5.28127Z" fill="#060B13"/>
<path d="M14.4895 5.35781H21.6424C21.4352 4.5723 20.9742 3.8739 20.3285 3.36735C19.6981 2.85766 18.9049 2.58222 18.0883 2.58936C17.2503 2.56865 16.4321 2.84079 15.7795 3.35725C15.1401 3.8693 14.6874 4.57137 14.4895 5.35781ZM13.7725 10.6388C13.2007 10.0878 12.7491 9.42834 12.4454 8.70049C12.1416 7.97264 11.992 7.19169 12.0057 6.40524C11.9926 5.61744 12.1399 4.83499 12.4392 4.10392C12.7385 3.37284 13.1837 2.70789 13.7485 2.14816C14.2959 1.57607 14.9595 1.1231 15.6964 0.818529C16.4333 0.513957 17.2271 0.364562 18.0265 0.37999C19.5877 0.362333 21.0965 0.932391 22.2428 1.97302C22.8377 2.50417 23.3129 3.15159 23.6378 3.87371C23.9628 4.59582 24.1303 5.37668 24.1296 6.16612C24.1316 6.51529 24.1087 6.86416 24.061 7.21019H14.4895C14.5251 7.62023 14.6428 8.01935 14.8359 8.38462C15.029 8.74989 15.2937 9.07414 15.6148 9.33873C16.2843 9.89499 17.1395 10.1889 18.0162 10.1639C18.547 10.1826 19.0757 10.0885 19.566 9.88797C20.0563 9.68742 20.4966 9.38517 20.8568 9.00194L23.6288 9.02551C23.1134 10.0264 22.3263 10.868 21.3543 11.4572C20.377 12.0655 19.242 12.3848 18.0849 12.3766C17.2832 12.3918 16.4869 12.2454 15.7452 11.9465C15.0035 11.6476 14.3321 11.2025 13.7725 10.6388Z" fill="#060B13"/>
<path d="M25.7041 12.1948V6.13248C25.7041 4.27113 26.1615 2.87118 27.0764 1.93265C27.5438 1.46178 28.1072 1.09303 28.7297 0.850444C29.3521 0.60786 30.0197 0.496914 30.6889 0.524853H30.9256V2.73759H30.6889C28.9186 2.73759 28.0347 3.86922 28.037 6.13248V12.1948H25.7041Z" fill="#060B13"/>
<path d="M37.8618 2.58938C37.3519 2.57358 36.8442 2.66282 36.3715 2.85135C35.8988 3.03987 35.4716 3.3235 35.1173 3.68396C34.4126 4.41041 34.0195 5.37514 34.0195 6.37832C34.0195 7.38151 34.4126 8.34625 35.1173 9.07269C35.4666 9.43181 35.8883 9.71552 36.3556 9.90571C36.8228 10.0959 37.3253 10.1884 37.831 10.1774C38.3315 10.1897 38.8291 10.099 39.2918 9.91105C39.7544 9.7231 40.1718 9.44211 40.5171 9.08615C41.2097 8.35364 41.5945 7.39119 41.5945 6.39179C41.5945 5.3924 41.2097 4.42996 40.5171 3.69743C40.1725 3.34036 39.7553 3.05839 39.2926 2.86983C38.8298 2.68126 38.3318 2.5903 37.831 2.60285L37.8618 2.58938ZM33.5118 2.1246C34.5123 1.1395 35.8299 0.525556 37.2399 0.387397C38.65 0.249238 40.0652 0.595422 41.2443 1.36695C42.4234 2.13847 43.2936 3.28757 43.7063 4.61839C44.119 5.94921 44.0489 7.37937 43.5078 8.6651C42.9667 9.95082 41.9881 11.0125 40.7389 11.6692C39.4897 12.3259 38.0472 12.537 36.6572 12.2665C35.2672 11.9959 34.0158 11.2605 33.1163 10.1856C32.2168 9.11063 31.7249 7.76271 31.7244 6.37158C31.7117 5.58145 31.8637 4.79711 32.1711 4.06677C32.4784 3.33642 32.9347 2.6755 33.5118 2.1246Z" fill="#060B13"/>
<path d="M55.9725 12.1948H53.3205L50.2639 8.03198L47.2071 12.1948H44.5312L48.9362 6.1493L44.8847 0.565247H47.5159L50.2398 4.28682L53.0118 0.565247H55.6432L51.5915 6.1493L55.9725 12.1948Z" fill="#060B13"/>
<path d="M58.6655 12.1577V8.26771H56.542V6.92055H58.6655V6.50628L58.7136 5.08838C58.8416 3.67608 59.2922 2.56691 60.0652 1.76085C60.883 0.936668 61.9832 0.439798 63.1528 0.366516V1.78779C62.3777 1.90465 61.665 2.27348 61.1287 2.83521C60.5708 3.46287 60.2487 4.25928 60.2162 5.09174L60.1682 6.50965V6.92391H63.9041V8.27109H60.1819V12.1611L58.6655 12.1577Z" fill="#060B13"/>
<path d="M67.825 0.568604H66.3086V12.1981H67.825V0.568604Z" fill="#060B13"/>
<path d="M79.7405 3.13498C79.3209 2.70375 78.8144 2.36304 78.2533 2.13458C77.6922 1.90611 77.0887 1.79489 76.4814 1.80801C75.8713 1.79718 75.2655 1.90936 74.7014 2.13761C74.1372 2.36586 73.6268 2.70531 73.2017 3.13498C72.3403 4.00555 71.8585 5.1714 71.8585 6.38506C71.8585 7.59871 72.3403 8.76455 73.2017 9.63513C73.6231 10.0682 74.1309 10.4113 74.6934 10.6431C75.256 10.8749 75.8611 10.9903 76.4711 10.9823C77.0763 10.9936 77.6774 10.8819 78.2365 10.6541C78.7956 10.4263 79.3007 10.0874 79.7199 9.6587C80.5672 8.77835 81.0393 7.61308 81.0393 6.40191C81.0393 5.19073 80.5672 4.02544 79.7199 3.14508L79.7405 3.13498ZM72.1348 2.1246C73.1353 1.1395 74.4529 0.525556 75.8629 0.387397C77.273 0.249238 78.6882 0.595422 79.8673 1.36695C81.0464 2.13847 81.9165 3.28757 82.3293 4.61839C82.742 5.94921 82.6718 7.37937 82.1307 8.6651C81.5896 9.95082 80.6111 11.0125 79.3619 11.6692C78.1127 12.3259 76.6701 12.537 75.2802 12.2665C73.8902 11.9959 72.6388 11.2605 71.7393 10.1856C70.8398 9.11063 70.3479 7.76271 70.3474 6.37158C70.3347 5.58145 70.4867 4.79711 70.7941 4.06677C71.1014 3.33642 71.5577 2.6755 72.1348 2.1246Z" fill="#060B13"/>
<path d="M94.4471 3.13498C94.0275 2.70375 93.521 2.36304 92.9599 2.13458C92.3987 1.90611 91.7953 1.79489 91.188 1.80801C90.5779 1.79718 89.9721 1.90936 89.408 2.13761C88.8438 2.36586 88.3334 2.70531 87.9083 3.13498C87.0469 4.00555 86.5651 5.1714 86.5651 6.38506C86.5651 7.59871 87.0469 8.76455 87.9083 9.63513C88.3294 10.0685 88.8372 10.4118 89.3998 10.6436C89.9623 10.8755 90.5676 10.9907 91.1777 10.9823C91.7825 10.994 92.3831 10.8824 92.9417 10.6545C93.5003 10.4267 94.0047 10.0876 94.4231 9.6587C95.2712 8.77874 95.7437 7.61332 95.7437 6.40191C95.7437 5.19049 95.2712 4.02505 94.4231 3.14508L94.4471 3.13498ZM86.8448 2.1246C87.8453 1.1395 89.1629 0.525556 90.5729 0.387397C91.983 0.249238 93.3982 0.595422 94.5773 1.36695C95.7565 2.13847 96.6265 3.28757 97.0393 4.61839C97.452 5.94921 97.3819 7.37937 96.8408 8.6651C96.2997 9.95082 95.3211 11.0125 94.0719 11.6692C92.8227 12.3259 91.3802 12.537 89.9902 12.2665C88.6002 11.9959 87.3488 11.2605 86.4493 10.1856C85.5498 9.11063 85.0579 7.76271 85.0574 6.37158C85.0445 5.58142 85.1964 4.79703 85.5038 4.06666C85.8112 3.33628 86.2675 2.67538 86.8448 2.1246Z" fill="#060B13"/>
<path d="M99.0684 12.1947V6.16611C99.0684 4.29128 99.5064 2.88011 100.382 1.9326C100.833 1.45816 101.382 1.08558 101.994 0.840731C102.605 0.595876 103.263 0.484623 103.923 0.514697C104.038 0.512929 104.152 0.519684 104.266 0.534904V1.95617C104.153 1.93791 104.038 1.93001 103.923 1.9326C103.46 1.91382 102.998 2.00078 102.575 2.18661C102.152 2.37244 101.778 2.6521 101.484 3.0036C100.885 3.71536 100.585 4.76954 100.585 6.16611V12.1947H99.0684Z" fill="#060B13"/>
<path d="M102.969 10.9015H103.227C103.314 10.9104 103.402 10.8915 103.477 10.8476C103.499 10.8309 103.516 10.8093 103.527 10.7847C103.539 10.7601 103.544 10.7332 103.542 10.7062C103.543 10.6702 103.532 10.635 103.511 10.6051C103.489 10.5748 103.458 10.5515 103.422 10.5378C103.353 10.5208 103.281 10.514 103.21 10.5176H102.969V10.9015ZM102.757 11.6256V10.3424H103.21C103.325 10.3363 103.441 10.3477 103.553 10.3761C103.619 10.3999 103.677 10.4435 103.717 10.5007C103.757 10.5561 103.778 10.6218 103.779 10.6893C103.78 10.735 103.771 10.7804 103.753 10.8226C103.736 10.8649 103.709 10.9032 103.676 10.9352C103.602 11.0057 103.505 11.0465 103.402 11.0497C103.444 11.0657 103.482 11.0898 103.515 11.1204C103.588 11.1978 103.652 11.2825 103.707 11.373L103.868 11.6256H103.611L103.494 11.4235C103.44 11.3107 103.364 11.209 103.271 11.1238C103.222 11.0905 103.163 11.075 103.103 11.08H102.969V11.6256H102.757ZM103.292 9.9686C103.117 9.97028 102.946 10.0155 102.794 10.0999C102.634 10.1831 102.501 10.3108 102.414 10.467C102.324 10.6184 102.276 10.7904 102.276 10.9655C102.277 11.1391 102.323 11.3096 102.41 11.4606C102.498 11.6159 102.629 11.7433 102.788 11.8277C102.94 11.9159 103.115 11.9625 103.292 11.9625C103.469 11.9625 103.643 11.9159 103.796 11.8277C103.955 11.7433 104.086 11.6159 104.174 11.4606C104.258 11.3087 104.303 11.1386 104.304 10.9655C104.304 10.7908 104.258 10.619 104.17 10.467C104.082 10.3115 103.949 10.1841 103.789 10.0999C103.644 10.0187 103.48 9.97363 103.312 9.9686H103.292ZM103.292 9.77325C103.501 9.774 103.706 9.82611 103.889 9.92482C104.08 10.0265 104.239 10.1795 104.345 10.366C104.449 10.5493 104.505 10.7555 104.506 10.9655C104.507 11.1736 104.451 11.3782 104.345 11.5583C104.242 11.7461 104.086 11.9006 103.896 12.0028C103.711 12.1043 103.503 12.1576 103.292 12.1576C103.08 12.1576 102.873 12.1043 102.688 12.0028C102.502 11.8968 102.35 11.7416 102.249 11.5549C102.142 11.3736 102.086 11.1681 102.086 10.9588C102.086 10.7495 102.142 10.5439 102.249 10.3626C102.355 10.1761 102.514 10.0231 102.705 9.92145C102.892 9.82226 103.101 9.77126 103.312 9.77325H103.292Z" fill="#060B13"/>
</g>
</g>
<defs>
<clipPath id="clip0_22001_213">
<rect width="104" height="12" fill="white" transform="translate(0.519531 0.380005)"/>
</clipPath>
</defs>
</svg>
