<svg width="123" height="13" viewBox="0 0 123 13" fill="none" xmlns="http://www.w3.org/2000/svg">
<g clip-path="url(#clip0_22001_232)">
<path d="M12.8568 4.46022C12.8568 2.46995 11.5265 0.662134 9.00448 0.647454C7.30749 0.647454 2.21652 0.630676 0.519531 0.630676V12.1508H2.53837V8.30654H7.87901L10.9999 12.1508H13.3991V12.004L10.1573 8.07585C12.1917 7.63123 12.8646 6.03734 12.8646 4.46022H12.8568ZM2.54617 6.34773V2.66709H9.01229C10.2802 2.66709 10.8458 3.58777 10.8458 4.50846C10.8458 5.42914 10.2958 6.34982 9.01229 6.34982L2.54617 6.34773Z" fill="#060B13"/>
<path d="M26.8425 0.634871C25.1611 0.634871 20.0857 0.651649 18.4043 0.651649V12.155H20.4212V8.76583H26.8425C32.0856 8.76583 32.07 0.630676 26.8425 0.630676V0.634871ZM26.8425 6.77766H20.4212V2.70064H26.8425C29.4094 2.70064 29.425 6.77766 26.8425 6.77766Z" fill="#060B13"/>
<path d="M63.7173 6.20296C64.7102 5.72479 65.1081 4.87122 65.1081 3.982C65.1081 1.67504 63.534 0.6474 61.4235 0.6474H52.9541V12.1507H61.4235C63.6393 12.1507 65.428 11.3307 65.428 8.76578C65.428 8.04223 64.9696 6.61192 63.7173 6.20296ZM54.9398 2.6188H61.4215C62.7069 2.6188 63.1029 3.50592 63.1029 4.03233C63.1029 4.68876 62.6913 5.2655 61.4215 5.2655H54.9418L54.9398 2.6188ZM61.4215 10.1311H54.9418V7.17188H61.4235C62.2486 7.17188 63.4267 7.71297 63.4267 8.749C63.4267 9.83327 62.2564 10.1311 61.4235 10.1311" fill="#060B13"/>
<path d="M72.2747 0.6474H70.2559V12.1528H81.1713V10.1458H72.2747V0.6474Z" fill="#060B13"/>
<path d="M88.0178 0.6474H86.0146V12.1528H88.0178V0.6474Z" fill="#060B13"/>
<path d="M103.145 8.97344C102.856 9.28218 102.528 9.54489 102.17 9.75361C101.767 9.98346 101.339 10.1582 100.896 10.2737C100.393 10.4034 99.8765 10.4668 99.359 10.4625C98.6802 10.4745 98.0044 10.3639 97.3596 10.1353C96.8266 9.94238 96.3337 9.63964 95.9084 9.24397C95.5271 8.88161 95.2248 8.43336 95.0229 7.93111C94.8259 7.44113 94.7243 6.91295 94.7244 6.37915C94.7233 5.83983 94.8249 5.30597 95.0229 4.81042C95.2248 4.30818 95.5271 3.85993 95.9084 3.49755C96.3338 3.10189 96.8286 2.80169 97.3635 2.61462C98.0085 2.39085 98.6833 2.28313 99.3609 2.29584C99.8543 2.29336 100.346 2.35106 100.828 2.46781C101.255 2.57088 101.67 2.72567 102.065 2.92921C102.42 3.11335 102.749 3.35291 103.04 3.64017C103.215 3.81676 103.374 4.01133 103.514 4.2211L105.215 3.21023C104.999 2.87485 104.751 2.56547 104.473 2.28745C104.08 1.89252 103.64 1.55542 103.165 1.28498C102.636 0.986786 102.073 0.762656 101.491 0.618057C100.827 0.455195 100.147 0.375667 99.4662 0.381068C98.4887 0.365004 97.516 0.531043 96.5911 0.871824C95.8143 1.15952 95.0959 1.60445 94.4747 2.18259C93.9202 2.70673 93.476 3.35195 93.1717 4.07523C92.8674 4.7985 92.71 5.58322 92.71 6.37706C92.71 7.17089 92.8674 7.95562 93.1717 8.67889C93.476 9.40217 93.9202 10.0474 94.4747 10.5715C95.0953 11.1506 95.8139 11.5956 96.5911 11.8823C97.5119 12.2238 98.4806 12.3919 99.4545 12.3793C100.157 12.3855 100.858 12.3003 101.542 12.1256C102.137 11.971 102.711 11.7334 103.249 11.4188C103.733 11.1374 104.178 10.7844 104.571 10.3702C104.856 10.0664 105.108 9.7278 105.32 9.36142L103.611 8.35475C103.478 8.58232 103.322 8.79333 103.145 8.98392" fill="#060B13"/>
<path d="M44.4227 0.634889C44.1958 0.634613 43.9711 0.682417 43.7615 0.775569C43.5518 0.868721 43.3613 1.00539 43.2008 1.17777C43.0402 1.35015 42.9129 1.55484 42.826 1.78017C42.7392 2.00549 42.6945 2.24702 42.6945 2.49093H45.9148V6.46099C45.855 6.98855 45.7465 7.50842 45.591 8.01294C45.3891 8.51518 45.0868 8.96343 44.7055 9.3258C44.2798 9.72192 43.7861 10.0247 43.2523 10.2171C42.1873 10.6707 41.0014 10.6707 39.9364 10.2171C39.4026 10.0247 38.9089 9.72192 38.4832 9.3258C38.1019 8.96343 37.7995 8.51518 37.5976 8.01294C37.4422 7.50842 37.3337 6.98855 37.2738 6.46099V0.634889H35.2804V6.46099C35.2757 7.25467 35.43 8.04013 35.733 8.76394C36.0359 9.48773 36.4803 10.1329 37.0359 10.6554C37.6575 11.2324 38.3767 11.6753 39.1542 11.9599C40.7389 12.5131 42.4458 12.5131 44.0306 11.9599C44.8078 11.6732 45.5264 11.2282 46.147 10.6491C46.7026 10.1266 47.1469 9.48143 47.4499 8.75764C47.7528 8.03384 47.9072 7.24838 47.9025 6.4547V0.634889H44.4227Z" fill="#060B13"/>
<path d="M115.022 2.5412L110.309 12.1507H108.302L113.904 0.718705V0.6474H116.881L122.52 12.1507H120.513L119.315 9.71792H115.724C115.491 9.71792 115.26 9.6685 115.044 9.57249C114.829 9.47647 114.633 9.33574 114.468 9.15833C114.303 8.98091 114.172 8.77029 114.083 8.53849C113.993 8.30669 113.947 8.05825 113.947 7.80735H118.375L115.787 2.5412H115.022Z" fill="#060B13"/>
</g>
<defs>
<clipPath id="clip0_22001_232">
<rect width="122" height="12" fill="white" transform="translate(0.519531 0.380005)"/>
</clipPath>
</defs>
</svg>
