<svg width="106" height="19" viewBox="0 0 106 19" fill="none" xmlns="http://www.w3.org/2000/svg">
<mask id="mask0_22001_266" style="mask-type:luminance" maskUnits="userSpaceOnUse" x="0" y="0" width="111" height="19">
<path d="M110.52 0.390015H0.519531V18.34H110.52V0.390015Z" fill="white"/>
</mask>
<g mask="url(#mask0_22001_266)">
<path fill-rule="evenodd" clip-rule="evenodd" d="M22.9723 0.404376L0.664364 9.28943C0.619588 9.30805 0.58221 9.34096 0.55804 9.38305C0.532711 9.42108 0.519305 9.46583 0.519543 9.51155C0.519078 9.5573 0.532503 9.60212 0.55804 9.64006C0.583709 9.67872 0.620922 9.70827 0.664364 9.7245L7.28764 12.1165C7.32309 12.1308 7.36172 12.1351 7.39947 12.1293C7.43651 12.1235 7.47167 12.109 7.50213 12.0871L20.0668 2.91936C20.0699 2.918 20.0734 2.91729 20.0769 2.91729C20.0803 2.91729 20.0837 2.918 20.087 2.91936C20.0939 2.92123 20.1003 2.92504 20.1053 2.93037C20.1065 2.93328 20.1071 2.9364 20.1071 2.93955C20.1071 2.9427 20.1065 2.94582 20.1053 2.94873C20.1078 2.95522 20.1078 2.96244 20.1053 2.96892L8.98334 12.6562C8.95769 12.6786 8.93707 12.7061 8.92285 12.737C8.90952 12.7682 8.90327 12.8021 8.90451 12.8361V17.9946C8.90318 18.0412 8.91736 18.0871 8.94485 18.1249C8.97233 18.1633 9.01062 18.1927 9.05483 18.2093C9.09909 18.2251 9.14717 18.2265 9.19225 18.2132C9.23732 18.2001 9.27711 18.1731 9.30597 18.1359L12.5159 14.1744C12.5458 14.1381 12.5861 14.1119 12.6313 14.0991C12.6767 14.0844 12.7254 14.0844 12.7707 14.0991L16.8624 15.5842C16.9164 15.6062 16.977 15.6062 17.031 15.5842C17.0842 15.5598 17.1265 15.5167 17.1502 15.4631L23.2693 0.701769C23.2857 0.660992 23.2895 0.616239 23.2803 0.573266C23.2726 0.529362 23.2515 0.488944 23.2198 0.457613C23.1892 0.425271 23.1496 0.402899 23.1061 0.393405C23.0626 0.383911 23.0173 0.387734 22.976 0.404376" fill="#060B13"/>
<path d="M30.0224 2.19458H28.0059L28.0353 14.4941H30.0517L30.0224 2.19458Z" fill="#060B13"/>
<path d="M36.3707 5.64392C35.3515 5.64392 34.4184 6.01107 33.8336 6.74537V5.82749H31.9326L31.9546 14.4923H33.8556L33.8409 8.75552C34.0182 8.34153 34.3147 7.98982 34.6925 7.74525C35.0702 7.50068 35.5121 7.37436 35.9619 7.38238C37.1718 7.38238 37.8648 8.24334 37.8685 9.61281L37.8795 14.4923H39.7804L39.7676 9.30992C39.7676 7.0703 38.4441 5.65126 36.3707 5.65677" fill="#060B13"/>
<path d="M47.6342 5.79079L45.0018 11.8634L42.3601 5.80547H40.252L44.1787 14.461H45.856L49.7553 5.78528L47.6342 5.79079Z" fill="#060B13"/>
<path d="M54.4736 5.6017C53.3657 5.62008 52.3042 6.05004 51.4952 6.8081C50.6861 7.56616 50.1873 8.59826 50.0955 9.70396C50.0036 10.8097 50.3254 11.9101 50.9982 12.7917C51.6711 13.6731 52.6469 14.2728 53.7365 14.4743C54.8262 14.6756 55.9515 14.4644 56.8944 13.8816C57.8371 13.2988 58.53 12.3859 58.8385 11.3202C59.1468 10.2545 59.0488 9.11207 58.5633 8.1147C58.0779 7.11735 57.2396 6.33621 56.2114 5.92296C55.6595 5.70044 55.0685 5.5912 54.4736 5.6017ZM54.4901 12.8456C52.9539 12.8456 51.8778 11.656 51.8759 10.114C51.8741 8.57196 52.9355 7.37321 54.4772 7.36037C56.019 7.34751 57.0731 8.55176 57.0767 10.0938C57.0804 11.6358 56.0116 12.8327 54.4956 12.8364L54.4901 12.8456Z" fill="#060B13"/>
<path d="M62.2644 5.7486H60.3633L60.3871 14.4134H62.2864L62.2644 5.7486Z" fill="#060B13"/>
<path d="M62.2644 2.40747H60.3633V4.16643H62.2644V2.40747Z" fill="#060B13"/>
<path d="M68.3248 7.33467C68.8242 7.33119 69.3138 7.47274 69.7345 7.74219C70.1552 8.01163 70.4889 8.39742 70.6951 8.85283L72.3449 7.94965C71.9585 7.21754 71.3771 6.60697 70.6652 6.1857C69.9532 5.76444 69.1387 5.54896 68.312 5.56316C65.7271 5.56684 63.7656 7.51824 63.7656 10.0865C63.7656 12.6547 65.7546 14.5859 68.3486 14.5823C69.1752 14.5937 69.9887 14.3752 70.6985 13.9509C71.4084 13.5266 71.9866 12.9133 72.3687 12.1792L70.7079 11.276C70.5046 11.7332 70.173 12.1212 69.7536 12.393C69.334 12.6649 68.8446 12.8087 68.345 12.807C66.8087 12.807 65.7161 11.6175 65.7125 10.0755C65.7088 8.53341 66.7959 7.33467 68.334 7.32182" fill="#060B13"/>
<path d="M77.8629 5.54108C75.236 5.54108 73.3496 7.51268 73.3643 10.0607C73.3643 12.6877 75.2598 14.562 77.8813 14.5565C79.687 14.5565 81.0435 13.7671 81.8153 12.5371L80.3708 11.5018C79.9235 12.2636 79.1077 12.8217 77.9033 12.8253C76.4697 12.8253 75.3258 11.8946 75.236 10.4737L82.0188 10.4572C82.0353 10.1819 82.0353 10.024 82.0353 9.83308C82.0353 7.0464 80.1233 5.54292 77.8611 5.54659L77.8629 5.54108ZM75.3148 9.08408C75.5714 7.79905 76.6897 7.1547 77.7988 7.1547C78.9079 7.1547 79.907 7.82475 80.1178 9.07124L75.3148 9.08408Z" fill="#060B13"/>
<path d="M106.019 5.47322H105.951C105.36 5.46858 104.774 5.58167 104.227 5.80591C103.68 6.03016 103.183 6.36108 102.765 6.77943C102.347 7.19778 102.016 7.6952 101.792 8.24277C101.567 8.79034 101.454 9.37711 101.458 9.96898V9.99284C101.454 10.5861 101.569 11.1742 101.795 11.7226C102.021 12.2711 102.353 12.769 102.774 13.1872C103.194 13.6055 103.693 13.9356 104.242 14.1584C104.791 14.3812 105.379 14.4923 105.971 14.4849H106.004C106.596 14.4932 107.184 14.3827 107.733 14.1601C108.281 13.9375 108.78 13.6074 109.2 13.1889C109.619 12.7709 109.951 12.2735 110.176 11.7258C110.402 11.178 110.516 10.5908 110.512 9.99835V9.96898C110.516 9.37799 110.402 8.79221 110.177 8.24573C109.952 7.69924 109.621 7.20297 109.203 6.78578C108.786 6.36782 108.289 6.03718 107.743 5.81309C107.197 5.58902 106.611 5.47598 106.021 5.48056L106.019 5.47322ZM105.997 12.7244C104.459 12.7244 103.387 11.5349 103.383 9.99468C103.379 8.45448 104.448 7.25207 105.982 7.24105C107.517 7.23003 108.578 8.43245 108.582 9.97449C108.586 11.5165 107.517 12.7135 105.997 12.717V12.7244Z" fill="#060B13"/>
<path d="M98.1672 5.66597V6.46268C97.5604 5.84036 96.6603 5.49707 95.6246 5.49891C93.1205 5.49891 91.3093 7.43013 91.291 9.86066C91.279 10.4357 91.3832 11.0072 91.5973 11.5409C91.8115 12.0747 92.1311 12.5595 92.5371 12.9663C92.9431 13.3732 93.427 13.6938 93.9597 13.9087C94.4925 14.1235 95.0632 14.2284 95.6374 14.2169C96.6768 14.2169 97.5733 13.8498 98.1764 13.2054V14.2316C98.1764 15.5809 97.4431 16.3023 96.4495 16.5226C93.9747 16.9668 92.4367 16.2197 92.4367 16.2197L91.8299 17.7765C92.7135 18.3272 95.4541 18.4851 96.7263 18.2041C98.5595 17.881 100.085 16.6805 100.079 14.2481L100.063 5.66413L98.1672 5.66597ZM98.18 11.2467C97.9346 11.6347 97.5918 11.9514 97.1858 12.165C96.7799 12.3786 96.3248 12.4816 95.8665 12.4637C94.3652 12.4637 93.2727 11.3439 93.2542 9.85515C93.2449 9.50893 93.3073 9.16451 93.4377 8.84366C93.5644 8.52208 93.7552 8.22977 93.9985 7.98452C94.2419 7.73925 94.5325 7.54606 94.8526 7.41668C95.1729 7.28729 95.5159 7.22442 95.861 7.23186C96.3169 7.21373 96.7696 7.3137 97.1755 7.5221C97.5815 7.73049 97.9268 8.04025 98.1782 8.42143L98.18 11.2467Z" fill="#060B13"/>
<path d="M85.5703 12.7247L88.1624 9.2C88.6849 8.51527 89.519 7.36424 89.6748 7.11274C90.3971 5.91767 90.4851 4.66202 89.8581 3.4082C89.3467 2.38752 88.4429 1.89002 87.3301 1.75601C85.7701 1.55776 84.1477 2.28104 83.4145 3.76066C83.244 4.08275 83.1322 4.43275 83.0845 4.79419L84.7472 5.16134C84.7728 5.08974 84.7966 5.031 84.8131 4.97776C84.8923 4.67529 85.038 4.39443 85.2398 4.15584C85.4416 3.91724 85.6941 3.727 85.9791 3.59911C86.5859 3.32192 87.4566 3.43022 87.9259 3.83593C88.7124 4.52066 88.7014 5.67168 88.1312 6.40598C88.0359 6.53082 83.1156 12.809 83.1156 12.809C83.0694 12.8639 83.0446 12.9338 83.046 13.0055V14.3951L90.3476 14.3769V12.7247H85.5703Z" fill="#060B13"/>
</g>
</svg>
