<svg width="114" height="33" viewBox="0 0 114 33" fill="none" xmlns="http://www.w3.org/2000/svg">
<g clip-path="url(#clip0_22001_1417)">
<path d="M17.5321 7.89001C15.7095 7.89001 13.9616 8.61403 12.6728 9.90278C11.3841 11.1915 10.6601 12.9394 10.6601 14.762V14.776C9.09176 14.8827 7.62618 15.5943 6.57235 16.7607C5.51852 17.9271 4.95879 19.4571 5.01119 21.0281C5.06358 22.5992 5.724 24.0885 6.8532 25.1821C7.9824 26.2757 9.49213 26.888 11.0641 26.89H24.0001C25.572 26.888 27.0817 26.2757 28.2109 25.1821C29.3401 24.0885 30.0006 22.5992 30.053 21.0281C30.1053 19.4571 29.5456 17.9271 28.4918 16.7607C27.438 15.5943 25.9724 14.8827 24.4041 14.776V14.762C24.4041 12.9394 23.6801 11.1915 22.3913 9.90278C21.1026 8.61403 19.3546 7.89001 17.5321 7.89001Z" fill="#6E51E0"/>
<path d="M17.5321 7.89001C15.7095 7.89001 13.9616 8.61403 12.6728 9.90278C11.3841 11.1915 10.6601 12.9394 10.6601 14.762V14.776C9.09176 14.8827 7.62618 15.5943 6.57235 16.7607C5.51852 17.9271 4.95879 19.4571 5.01119 21.0281C5.06358 22.5992 5.724 24.0885 6.8532 25.1821C7.9824 26.2757 9.49213 26.888 11.0641 26.89H24.0001C25.572 26.888 27.0817 26.2757 28.2109 25.1821C29.3401 24.0885 30.0006 22.5992 30.053 21.0281C30.1053 19.4571 29.5456 17.9271 28.4918 16.7607C27.438 15.5943 25.9724 14.8827 24.4041 14.776V14.762C24.4041 12.9394 23.6801 11.1915 22.3913 9.90278C21.1026 8.61403 19.3546 7.89001 17.5321 7.89001Z" fill="url(#paint0_linear_22001_1417)" fill-opacity="0.4"/>
<path d="M17.5321 7.89001C15.7095 7.89001 13.9616 8.61403 12.6728 9.90278C11.3841 11.1915 10.6601 12.9394 10.6601 14.762V14.776C9.09176 14.8827 7.62618 15.5943 6.57235 16.7607C5.51852 17.9271 4.95879 19.4571 5.01119 21.0281C5.06358 22.5992 5.724 24.0885 6.8532 25.1821C7.9824 26.2757 9.49213 26.888 11.0641 26.89H24.0001C25.572 26.888 27.0817 26.2757 28.2109 25.1821C29.3401 24.0885 30.0006 22.5992 30.053 21.0281C30.1053 19.4571 29.5456 17.9271 28.4918 16.7607C27.438 15.5943 25.9724 14.8827 24.4041 14.776V14.762C24.4041 12.9394 23.6801 11.1915 22.3913 9.90278C21.1026 8.61403 19.3546 7.89001 17.5321 7.89001Z" stroke="url(#paint1_linear_22001_1417)" stroke-opacity="0.32" stroke-width="1.5" stroke-linecap="round" stroke-linejoin="round"/>
<path d="M48.0521 27.206C46.4521 27.206 45.0721 26.947 43.9121 26.429C42.7611 25.91 41.8731 25.163 41.2491 24.187C40.6251 23.203 40.3041 22.021 40.2871 20.641H43.8071C43.8331 21.388 44.0221 22.025 44.3741 22.553C44.7251 23.08 45.2141 23.484 45.8371 23.765C46.4701 24.038 47.2131 24.175 48.0651 24.175C48.8651 24.175 49.5591 24.06 50.1481 23.831C50.7461 23.603 51.2121 23.282 51.5461 22.869C51.8801 22.447 52.0461 21.955 52.0461 21.392C52.0461 20.927 51.9151 20.527 51.6511 20.192C51.3961 19.85 51.0051 19.56 50.4781 19.322C49.9501 19.077 49.2741 18.857 48.4481 18.663L46.3121 18.163C44.4491 17.732 43.0471 17.081 42.1061 16.211C41.1751 15.332 40.7091 14.194 40.7091 12.797C40.7091 11.627 41.0161 10.604 41.6321 9.72502C42.2471 8.84602 43.0991 8.16502 44.1891 7.68102C45.2791 7.18902 46.5401 6.94302 47.9731 6.94302C49.4231 6.94302 50.6801 7.19302 51.7431 7.69502C52.8161 8.19502 53.6511 8.90302 54.2481 9.81702C54.8461 10.731 55.1621 11.812 55.1981 13.06H51.7701C51.7001 12.094 51.3211 11.338 50.6361 10.793C49.9591 10.248 49.0631 9.97502 47.9461 9.97502C47.2351 9.97502 46.6061 10.09 46.0611 10.318C45.5161 10.538 45.0911 10.846 44.7821 11.241C44.4762 11.6319 44.3135 12.1158 44.3211 12.612C44.3211 13.078 44.4531 13.474 44.7171 13.799C44.9801 14.115 45.3711 14.392 45.8901 14.629C46.4081 14.858 47.0461 15.059 47.8011 15.236L49.7391 15.697C50.6791 15.908 51.5151 16.177 52.2441 16.501C52.9741 16.818 53.5891 17.201 54.0901 17.648C54.6001 18.096 54.9821 18.62 55.2371 19.218C55.5011 19.806 55.6331 20.478 55.6331 21.234C55.6331 22.447 55.3251 23.502 54.7101 24.398C54.1031 25.286 53.2331 25.976 52.1001 26.468C50.9741 26.96 49.6251 27.206 48.0521 27.206ZM64.4401 12.744V15.486H56.0421V12.744H64.4401ZM58.1121 9.02602H61.5791V22.54C61.5791 23.112 61.6991 23.52 61.9351 23.766C62.1731 24.013 62.5731 24.136 63.1351 24.136H63.7681C63.9881 24.126 64.1811 24.118 64.3481 24.109L64.5061 26.851C64.2431 26.887 63.9261 26.909 63.5571 26.917C63.1871 26.935 62.8191 26.944 62.4491 26.944C61.0521 26.944 59.9791 26.614 59.2331 25.955C58.4861 25.295 58.1131 24.351 58.1131 23.121L58.1121 9.02602ZM71.8501 27.206C70.4361 27.206 69.2101 26.894 68.1721 26.27C67.1401 25.6518 66.3071 24.7505 65.7721 23.673C65.2101 22.566 64.9291 21.291 64.9291 19.85C64.9291 18.409 65.2151 17.134 65.7861 16.027C66.3571 14.91 67.1481 14.04 68.1591 13.417C69.1791 12.784 70.3561 12.467 71.6921 12.467C72.6681 12.467 73.5641 12.634 74.3821 12.968C75.1942 13.2839 75.9241 13.7796 76.5171 14.418C77.1241 15.051 77.5901 15.816 77.9151 16.712C78.2491 17.609 78.4151 18.624 78.4151 19.758V20.72H66.3401V18.4H76.7021L75.1331 19.02C75.1331 18.237 74.9971 17.56 74.7251 16.99C74.4753 16.4352 74.0668 15.9669 73.5511 15.644C73.0511 15.328 72.4441 15.17 71.7311 15.17C71.0291 15.17 70.4221 15.328 69.9121 15.644C69.4021 15.961 69.0071 16.404 68.7261 16.976C68.4541 17.538 68.3171 18.198 68.3171 18.954V20.496C68.3171 21.305 68.4571 22.012 68.7391 22.618C69.0091 23.1938 69.4397 23.6792 69.9791 24.016C70.5231 24.35 71.1741 24.517 71.9291 24.517C72.4571 24.517 72.9271 24.437 73.3401 24.28C73.7377 24.1374 74.0982 23.9074 74.3951 23.607C74.6851 23.309 74.8951 22.961 75.0281 22.566L78.2581 22.671C78.0827 23.5489 77.6831 24.3664 77.0981 25.044C76.5081 25.721 75.7621 26.253 74.8561 26.64C73.9601 27.017 72.9571 27.206 71.8501 27.206ZM83.2161 7.24602V26.89H79.7621V7.24602H83.2161ZM88.7011 7.24602V26.89H85.2471V7.24602H88.7011ZM94.9111 27.141C93.9811 27.141 93.1501 26.982 92.4211 26.666C91.7177 26.3715 91.1167 25.8762 90.6931 25.242C90.2711 24.609 90.0601 23.827 90.0601 22.895C90.0601 22.087 90.2101 21.423 90.5081 20.905C90.8161 20.377 91.2251 19.955 91.7351 19.639C92.2829 19.3107 92.8788 19.0705 93.5011 18.927C94.1813 18.7569 94.8732 18.6379 95.5711 18.571C96.4321 18.474 97.1181 18.391 97.6281 18.321C98.1381 18.241 98.5071 18.127 98.7351 17.978C98.9631 17.828 99.0781 17.596 99.0781 17.279V17.187C99.0781 16.774 98.9771 16.413 98.7751 16.106C98.5811 15.798 98.2951 15.561 97.9181 15.394C97.5481 15.227 97.1001 15.144 96.5731 15.144C96.0371 15.144 95.5671 15.227 95.1631 15.394C94.7671 15.561 94.4461 15.794 94.2001 16.093C93.9631 16.383 93.8131 16.713 93.7521 17.081L90.4821 16.897C90.5961 16.035 90.9121 15.275 91.4321 14.617C91.9591 13.948 92.6571 13.425 93.5281 13.047C94.4061 12.669 95.4301 12.48 96.5991 12.48C97.4431 12.48 98.2251 12.586 98.9461 12.797C99.6661 13.007 100.291 13.32 100.818 13.733C101.354 14.137 101.767 14.633 102.057 15.223C102.356 15.811 102.506 16.483 102.506 17.24V26.89H99.1441V24.9H99.0641C98.8397 25.3277 98.5457 25.715 98.1941 26.046C97.8341 26.38 97.3861 26.648 96.8501 26.85C96.3141 27.044 95.6681 27.14 94.9121 27.14L94.9111 27.141ZM95.7951 24.609C96.4891 24.609 97.0831 24.477 97.5751 24.214C98.0751 23.95 98.4541 23.603 98.7091 23.172C98.9631 22.732 99.0911 22.245 99.0911 21.709V20.153C98.9383 20.2443 98.7743 20.3153 98.6031 20.364C98.3931 20.426 98.1421 20.487 97.8521 20.549C97.5701 20.601 97.2721 20.654 96.9551 20.707L96.0321 20.839C95.5491 20.909 95.1101 21.023 94.7141 21.181C94.3191 21.331 94.0021 21.541 93.7641 21.814C93.5281 22.078 93.4091 22.421 93.4091 22.843C93.4091 23.405 93.6241 23.84 94.0551 24.148C94.4951 24.455 95.0751 24.609 95.7951 24.609ZM104.51 26.89V12.744H107.846V15.104H107.925C108.18 14.287 108.597 13.667 109.177 13.245C109.758 12.815 110.491 12.599 111.379 12.599C111.59 12.599 111.797 12.603 111.999 12.612C112.201 12.621 112.372 12.634 112.513 12.652V15.724C112.381 15.706 112.161 15.684 111.854 15.658C111.543 15.6226 111.231 15.6049 110.918 15.605C110.364 15.605 109.863 15.732 109.415 15.987C108.96 16.2401 108.589 16.6203 108.347 17.081C108.092 17.565 107.965 18.154 107.965 18.848V26.89H104.51Z" fill="#060B13"/>
</g>
<defs>
<linearGradient id="paint0_linear_22001_1417" x1="17.5321" y1="7.89001" x2="17.5321" y2="22.388" gradientUnits="userSpaceOnUse">
<stop stop-color="white"/>
<stop offset="1" stop-color="white" stop-opacity="0"/>
</linearGradient>
<linearGradient id="paint1_linear_22001_1417" x1="17.5321" y1="-2.98399" x2="17.5321" y2="27.826" gradientUnits="userSpaceOnUse">
<stop stop-color="white"/>
<stop offset="1" stop-color="white" stop-opacity="0"/>
</linearGradient>
<clipPath id="clip0_22001_1417">
<rect width="114" height="32" fill="white" transform="translate(0 0.890015)"/>
</clipPath>
</defs>
</svg>
