<svg width="39" height="30" viewBox="0 0 39 30" fill="none" xmlns="http://www.w3.org/2000/svg">
<path d="M31.9663 12.1281C31.764 5.40646 26.2503 0 19.5015 0C12.9712 0 7.59664 5.06232 7.07407 11.4803C2.97364 12.3433 0 15.9471 0 20.2656C0 25.2201 4.01626 29.25 8.95344 29.25C9.62687 29.25 10.1724 28.7002 10.1724 28.0215C10.1724 27.3429 9.62687 26.7931 8.95344 26.7931C5.35967 26.7931 2.43759 23.8646 2.43759 20.2656C2.43759 16.8641 4.98235 14.0694 8.35751 13.7691C8.98722 13.7136 9.46802 13.1818 9.46802 12.5455V12.5096C9.46802 6.96619 13.9682 2.45684 19.4998 2.45684C25.0314 2.45684 29.5315 6.96619 29.5315 12.5096C29.5315 12.725 29.525 12.9387 29.5121 13.1475C29.4927 13.4754 29.6044 13.7985 29.8229 14.0432C30.0414 14.2879 30.349 14.4347 30.6744 14.4478C33.9768 14.5962 36.562 17.3061 36.562 20.6164C36.562 24.0212 33.7971 26.7914 30.3976 26.7914C29.7241 26.7914 29.1786 27.3411 29.1786 28.0198C29.1786 28.6985 29.7241 29.2483 30.3976 29.2483C35.1406 29.2483 39 25.3753 39 20.6163C39 16.391 35.9923 12.8669 31.9632 12.1264L31.9663 12.1281Z" fill="#333333"/>
<path d="M20.2845 12.3569C19.8319 11.881 19.0976 11.881 18.645 12.3569L13.0894 18.1986C12.6369 18.6745 12.6369 19.4466 13.0894 19.9225C13.3157 20.1604 13.6128 20.2786 13.9083 20.2786C14.2054 20.2786 14.501 20.1604 14.7273 19.9225L18.3401 16.1236V28.7812C18.3401 29.4545 18.8589 30 19.4992 30C20.1396 30 20.6584 29.4545 20.6584 28.7812V16.1998L24.2727 20.0003C24.499 20.2383 24.7961 20.3564 25.0917 20.3564C25.3888 20.3564 25.6858 20.2383 25.9106 20.0003C26.3631 19.5245 26.3631 18.7524 25.9106 18.2765L20.2813 12.3573L20.2845 12.3569Z" fill="#333333"/>
</svg>
